<svg width="20" height="20" viewBox="0 0 20 20" fill="none" xmlns="http://www.w3.org/2000/svg">
<path d="M1.66669 12.0833L9.70188 16.1009C9.8112 16.1556 9.86586 16.1829 9.92319 16.1937C9.97397 16.2032 10.0261 16.2032 10.0769 16.1937C10.1342 16.1829 10.1888 16.1556 10.2982 16.1009L18.3334 12.0833M1.66669 7.91668L9.70188 3.89908C9.8112 3.84443 9.86586 3.8171 9.92319 3.80634C9.97397 3.79681 10.0261 3.79681 10.0769 3.80634C10.1342 3.8171 10.1888 3.84443 10.2982 3.89908L18.3334 7.91668L10.2982 11.9343C10.1888 11.9889 10.1342 12.0163 10.0769 12.027C10.0261 12.0365 9.97397 12.0365 9.92319 12.027C9.86586 12.0163 9.8112 11.9889 9.70188 11.9343L1.66669 7.91668Z" stroke="#5D5FEF" stroke-width="1.66667" stroke-linecap="round" stroke-linejoin="round"/>
</svg>
